<?xml version="1.0" encoding="UTF-8"?><svg id="Layer_2" xmlns="http://www.w3.org/2000/svg" xmlns:xlink="http://www.w3.org/1999/xlink" viewBox="0 0 225 137.17"><defs><style>.cls-1{fill:none;}.cls-2{clip-path:url(#clippath);}.cls-3{fill:#f9d352;}.cls-4{fill:#006beb;}.cls-5{fill:#000082;}.cls-6{fill:#fff;}.cls-7{fill:#ffefbf;}.cls-8{clip-path:url(#clippath-1);}</style><clipPath id="clippath"><rect class="cls-1" width="225" height="137.17"/></clipPath><clipPath id="clippath-1"><rect class="cls-1" width="225" height="137.17"/></clipPath></defs><g id="Layer_2-2"><g id="simple_process"><g class="cls-2"><g class="cls-8"><path class="cls-7" d="M225,112.68c-.02,8.25-.92,16.45-2.73,24.49H2.74C-10.84,76.49,27.35,16.3,88.04,2.73,96.05,.92,104.28,.02,112.51,0c16.33,.02,31.85,3.5,45.85,9.78,4.03,1.8,7.93,3.84,11.69,6.08,32.94,19.66,54.98,55.67,54.96,96.82"/><path class="cls-3" d="M22.63,137.17c-4.22-27.13,.97-35.73,4.87-38.44,5.98-4.18,16.89-.36,27.45,3.36,13.07,4.57,26.57,9.32,36.45,1.11,10.41-8.65,7.55-24.17,4.78-39.2-2.31-12.55-4.7-25.54,1.03-31.41,3.4-3.5,12.65-.17,21.61,3.08,12.25,4.43,26.17,9.46,37.67,2.5,6.8-4.13,11.33-11.52,13.56-22.31-3.76-2.25-7.66-4.28-11.69-6.08-1.57,11.23-5.35,15.78-8.39,17.63-6.36,3.84-16.79,.08-26.86-3.59-12.13-4.39-25.85-9.36-34.94,0-10.24,10.55-7.11,27.51-4.36,42.47,2.12,11.46,4.28,23.29-.44,27.24-4.41,3.63-14.48,.1-24.24-3.32-12.9-4.53-27.55-9.67-38.8-1.82-10.6,7.36-14.04,23.42-10.43,48.79h12.74Z"/><path class="cls-5" d="M132.33,121.64h-39.66c-3.28,0-5.94-2.66-5.94-5.94V33.94c0-3.28,2.66-5.94,5.94-5.94h39.66c3.28,0,5.94,2.66,5.94,5.94V115.7c0,3.28-2.66,5.94-5.94,5.94"/><path class="cls-6" d="M131.5,119.44h-38c-2.64,0-4.77-2.14-4.77-4.77V34.98c0-2.64,2.14-4.77,4.77-4.77h38c2.64,0,4.77,2.14,4.77,4.77V114.66c0,2.64-2.14,4.77-4.77,4.77"/><path class="cls-5" d="M121.12,32.74h-17.25c-1.62,0-2.93-1.31-2.93-2.93v-.34h23.11v.34c0,1.62-1.31,2.93-2.93,2.93"/><path class="cls-5" d="M120.02,115.28h-15.04c-.74,0-1.34-.67-1.34-1.5s.6-1.5,1.34-1.5h15.04c.74,0,1.34,.67,1.34,1.5s-.6,1.5-1.34,1.5"/><path class="cls-5" d="M126.25,67.45h-26.14c-.58,0-1.05-.47-1.05-1.05s.47-1.05,1.05-1.05h26.14c.58,0,1.05,.47,1.05,1.05s-.47,1.05-1.05,1.05"/><path class="cls-5" d="M126.25,72.18h-26.14c-.58,0-1.05-.47-1.05-1.05s.47-1.05,1.05-1.05h26.14c.58,0,1.05,.47,1.05,1.05s-.47,1.05-1.05,1.05"/><path class="cls-4" d="M159.76,104.83c0,13.34-10.81,24.15-24.15,24.15s-24.15-10.81-24.15-24.15,10.81-24.15,24.15-24.15,24.15,10.81,24.15,24.15"/><path class="cls-6" d="M148,96.37c-.73-.73-1.92-.73-2.71,.06l-13.91,12.81-5.53-5.53c-.73-.73-1.92-.73-2.65,0-.73,.73-.73,1.92,0,2.65l6.92,6.92c.35,.35,.82,.55,1.32,.55s.97-.19,1.38-.61l15.18-14.21c.73-.73,.73-1.92,0-2.65"/><polygon class="cls-5" points="99.07 53.72 99.07 52.33 101.48 52.33 101.48 58.69 99.93 58.69 99.93 53.72 99.07 53.72"/><path class="cls-5" d="M111.27,57.28c.57-.47,1.02-.86,1.35-1.16,.33-.3,.61-.62,.83-.95s.34-.65,.34-.97c0-.24-.06-.42-.17-.56-.11-.13-.28-.2-.5-.2s-.4,.08-.52,.25c-.12,.17-.19,.4-.19,.7h-1.44c.01-.49,.12-.91,.32-1.24,.2-.33,.47-.57,.79-.73,.33-.16,.69-.23,1.1-.23,.69,0,1.21,.18,1.56,.53,.35,.35,.53,.82,.53,1.39,0,.62-.21,1.2-.64,1.73-.42,.53-.97,1.05-1.62,1.56h2.35v1.21h-4.38v-1.11c.2-.16,.29-.23,.27-.22"/><path class="cls-5" d="M123.56,52.69c.38-.34,.9-.5,1.56-.5,.44,0,.81,.07,1.12,.23,.31,.15,.55,.36,.71,.62,.16,.26,.24,.56,.24,.88,0,.38-.1,.7-.29,.94-.19,.24-.42,.4-.67,.49v.03c.33,.11,.59,.29,.78,.55,.19,.26,.29,.58,.29,.99,0,.36-.08,.68-.25,.95-.17,.28-.41,.49-.72,.65-.32,.16-.69,.24-1.13,.24-.7,0-1.25-.17-1.67-.51-.42-.34-.63-.86-.66-1.55h1.45c0,.26,.08,.46,.22,.61s.34,.22,.61,.22c.23,0,.4-.07,.53-.2,.12-.13,.19-.3,.19-.52,0-.28-.09-.48-.27-.61-.18-.12-.46-.19-.85-.19h-.28v-1.21h.28c.3,0,.54-.05,.72-.15,.18-.1,.28-.28,.28-.54,0-.21-.06-.37-.18-.49-.12-.12-.28-.17-.48-.17-.22,0-.39,.07-.49,.2-.11,.13-.17,.3-.19,.5h-1.46c.02-.62,.23-1.1,.61-1.44"/></g></g></g></g></svg>