<?xml version="1.0" encoding="UTF-8"?><svg id="Layer_2" xmlns="http://www.w3.org/2000/svg" xmlns:xlink="http://www.w3.org/1999/xlink" viewBox="0 0 225 137.18"><defs><style>.cls-1,.cls-2{fill:none;}.cls-3{clip-path:url(#clippath);}.cls-4{fill:#0064dd;}.cls-5{fill:#fff;}.cls-6{fill:#83dcc1;}.cls-7{fill:#c9f8ea;}.cls-8{clip-path:url(#clippath-1);}.cls-9{clip-path:url(#clippath-3);}.cls-10{clip-path:url(#clippath-2);}.cls-2{stroke:#040086;stroke-linecap:round;stroke-linejoin:round;stroke-width:2.1px;}</style><clipPath id="clippath"><rect class="cls-1" width="225" height="137.18"/></clipPath><clipPath id="clippath-1"><rect class="cls-1" width="225" height="137.18"/></clipPath><clipPath id="clippath-2"><path class="cls-1" d="M112.52,0c-8.25,0-16.45,.92-24.49,2.73C47.1,11.88,16.4,42.24,4.92,79.66c-1.62,5.29-2.85,10.7-3.69,16.22-1.99,13.37-1.62,27.32,1.51,41.3H222.29c1.78-7.97,2.69-16.16,2.71-24.32v-.17c0-8.2-.86-16.22-2.54-23.92C211.55,38.07,166.49,.06,112.52,0Z"/></clipPath><clipPath id="clippath-3"><rect class="cls-1" width="225" height="137.18"/></clipPath></defs><g id="Layer_2-2"><g id="instant_funding"><g class="cls-3"><g class="cls-8"><path class="cls-7" d="M112.51,0c62.18,.05,112.54,50.51,112.49,112.69,0,8.24-.92,16.44-2.72,24.48H2.74C-10.83,76.5,27.35,16.3,88.03,2.72,96.07,.93,104.28,.02,112.51,0"/></g><g class="cls-10"><path class="cls-6" d="M227.1,113.28c-28.5-40.32-43.76-43.68-50.31-42.08-7.35,1.8-12.14,12.04-16.76,21.91-5.54,11.8-11.8,25.19-24.89,25.19h-.3c-14.97-.24-24.93-14.69-33.74-27.45-6.74-9.77-13.79-19.9-19.95-19.29-5.79,.54-10.5,10.35-15.07,19.84-6.03,12.55-12.87,26.79-26.64,29.25-1.3,.24-2.63,.36-3.98,.36-11.16,0-23.18-8.25-36.35-25.01,.86-5.62,2.12-11.14,3.76-16.53,18.37,26.66,29.25,29.48,34.29,28.56,7.31-1.3,12.42-11.93,17.36-22.19,6.09-12.72,12.42-25.87,25.44-27.07,13.7-1.28,22.85,11.97,31.68,24.78,7.4,10.71,15.03,21.79,23.37,21.91h.06c4.96,0,9.21-9.04,13.3-17.79,5.64-12.04,12.02-25.68,25.34-28.95,14.39-3.53,31.11,6.31,50.78,30.02l2.59,24.52Z"/></g><g class="cls-9"><rect class="cls-4" x="131.62" y="48.75" width="7.13" height="13.88" transform="translate(3.12 118.41) rotate(-47.79)"/><rect class="cls-2" x="131.62" y="48.75" width="7.13" height="13.88" transform="translate(3.12 118.41) rotate(-47.79)"/><line class="cls-2" x1="62.12" y1="71.18" x2="87.34" y2="71.18"/><line class="cls-2" x1="53.57" y1="79.71" x2="78.79" y2="79.71"/><line class="cls-2" x1="62.12" y1="88.24" x2="87.34" y2="88.24"/><line class="cls-2" x1="74.73" y1="96.77" x2="99.96" y2="96.77"/><path class="cls-5" d="M112.06,50.14c17.94,0,32.49,14.54,32.49,32.49s-14.54,32.49-32.49,32.49-32.49-14.54-32.49-32.49,14.54-32.49,32.49-32.49"/><path class="cls-2" d="M112.06,50.14c17.94,0,32.49,14.54,32.49,32.49s-14.54,32.49-32.49,32.49-32.49-14.54-32.49-32.49,14.54-32.49,32.49-32.49Z"/><path class="cls-2" d="M112.06,50.14v-8.06m4.44,0h-8.88"/><path class="cls-4" d="M136.2,82.83c0,13.49-10.94,24.43-24.43,24.43s-24.43-10.94-24.43-24.43,10.94-24.43,24.43-24.43,24.43,10.94,24.43,24.43"/><path class="cls-2" d="M136.2,82.83c0,13.49-10.94,24.43-24.43,24.43s-24.43-10.94-24.43-24.43,10.94-24.43,24.43-24.43,24.43,10.94,24.43,24.43Z"/><path class="cls-5" d="M112.17,94.47c.86,0,1.57-.7,1.57-1.57v-1.06l.18-.04c.51-.11,.99-.26,1.43-.45,1.93-.83,3.05-2.35,3.15-4.29,.2-3.79-2.63-5.01-5.12-5.64l-2.19-.49c-2.61-.67-2.56-1.69-2.53-2.23,.02-.28,.13-.82,.71-1.27,.41-.32,.83-.53,1.75-.63,1.04-.11,1.89,.06,2.05,.1,1.57,.36,2.02,1.28,2.06,1.38,.31,.81,1.21,1.21,2.01,.92,.39-.15,.71-.43,.88-.81,.18-.38,.19-.81,.05-1.2-.04-.1-1-2.57-4.25-3.33l-.18-.04v-1.06c0-.86-.7-1.57-1.57-1.57s-1.57,.7-1.57,1.57v.94l-.2,.03c-1.45,.23-2.42,.8-2.97,1.23-1.14,.89-1.83,2.19-1.9,3.57-.15,2.87,1.67,4.74,5.42,5.56l2.18,.52c2.22,.67,2.3,1.3,2.25,2.28-.03,.5-.2,1.13-1.28,1.59-.3,.13-.42,.18-.91,.27-1.13,.22-1.87,.12-2.07,.09-1.79-.24-2.82-1.29-3.28-1.9-.25-.33-.61-.55-1.03-.61-.08-.01-.15-.02-.23-.02-.33,0-.66,.11-.93,.31-.69,.52-.84,1.5-.32,2.19,.71,.95,2.32,2.63,5.08,3.09l.19,.03v.97c0,.86,.7,1.57,1.57,1.57"/></g></g></g></g></svg>