<?xml version="1.0" encoding="UTF-8"?><svg id="Layer_2" xmlns="http://www.w3.org/2000/svg" xmlns:xlink="http://www.w3.org/1999/xlink" viewBox="0 0 225 137.17"><defs><style>.cls-1{fill:none;}.cls-2{clip-path:url(#clippath);}.cls-3{fill:#000082;}.cls-4{fill:#0064dd;}.cls-5{fill:#fff;}.cls-6{fill:#b184de;}.cls-7{fill:#e1cff3;}.cls-8{clip-path:url(#clippath-1);}</style><clipPath id="clippath"><rect class="cls-1" width="225" height="137.17"/></clipPath><clipPath id="clippath-1"><rect class="cls-1" width="225" height="137.17"/></clipPath></defs><g id="Layer_2-2"><g id="no_hard_credit_pulls"><g class="cls-2"><g class="cls-8"><path class="cls-7" d="M0,112.68c.02,8.25,.92,16.45,2.73,24.49H222.26c13.58-60.68-24.61-120.87-85.3-134.44C128.95,.92,120.72,.02,112.49,0c-16.33,.02-31.85,3.5-45.85,9.78-4.03,1.8-7.93,3.84-11.69,6.08C22.01,35.53-.02,71.53,0,112.68"/><path class="cls-6" d="M202.37,137.17c4.22-27.13-.96-35.73-4.87-38.44-5.98-4.18-16.89-.36-27.45,3.36-13.07,4.57-26.57,9.32-36.45,1.11-10.41-8.65-7.55-24.17-4.78-39.2,2.31-12.55,4.7-25.54-1.03-31.41-3.4-3.5-12.65-.17-21.61,3.08-12.25,4.43-26.17,9.46-37.67,2.5-6.8-4.13-11.33-11.52-13.56-22.31,3.76-2.25,7.66-4.28,11.69-6.08,1.57,11.23,5.35,15.78,8.39,17.63,6.36,3.84,16.79,.08,26.86-3.59,12.13-4.39,25.85-9.36,34.94,0,10.24,10.55,7.11,27.51,4.36,42.47-2.12,11.46-4.28,23.29,.44,27.24,4.41,3.63,14.48,.1,24.24-3.32,12.9-4.53,27.55-9.67,38.8-1.82,10.6,7.36,14.04,23.42,10.43,48.79h-12.74Z"/><path class="cls-4" d="M168.27,49.5v7.8h-25.05v-7.57c0-7.55,6.14-13.69,13.68-13.69,.04,0,.08,0,.11,0,6.39,1.15,11.26,6.75,11.26,13.47"/><path class="cls-3" d="M154.58,33.98h-44.66c-.23,0-.44,.09-.6,.23h-11.67c-8.56,0-15.52,6.96-15.52,15.52V116.54h1.82V49.73c0-7.55,6.14-13.69,13.69-13.69h51.96c-4.89,2.61-8.23,7.77-8.23,13.69V116.54h1.83V59.12h25.96c.5,0,.91-.41,.91-.91v-8.72c0-8.56-6.96-15.52-15.51-15.52m13.68,23.32h-25.05v-7.57c0-7.55,6.14-13.69,13.68-13.69,.04,0,.08,0,.11,0,6.39,1.15,11.26,6.75,11.26,13.47v7.8Z"/><path class="cls-5" d="M129.72,96.66v3.19c1.12-.12,1.74-.68,1.74-1.52,0-.77-.39-1.24-1.74-1.67"/><path class="cls-5" d="M126.65,92.59c0,.74,.33,1.19,1.68,1.63v-3.1c-1.12,.1-1.68,.7-1.68,1.47"/><path class="cls-5" d="M97.65,36.04c-7.55,0-13.69,6.14-13.69,13.69V116.54h57.43V49.73c0-5.93,3.34-11.08,8.22-13.69h-51.96Zm-5.66,16.67c3.48-.05,7.02,.04,10.43,.13,4.5,.12,9.16,.24,13.74,.05,.51-.02,.93,.37,.95,.87,.03,.51-.37,.93-.87,.95-1.75,.08-3.5,.1-5.25,.1-2.9,0-5.78-.08-8.61-.15-3.4-.08-6.91-.18-10.36-.13-.51,.02-.92-.4-.92-.91,0-.5,.39-.92,.9-.92m23.51,37.03h0l-23.77-.18c-.51,0-.91-.42-.91-.92,0-.5,.41-.9,.92-.91l23.77,.19c.5,0,.91,.41,.9,.92,0,.5-.41,.91-.91,.91m.7-8.25h0c-4.43-.06-8.99-.08-13.41-.11-3.64-.03-7.39-.04-11-.08-.5,0-.91-.42-.9-.92,0-.5,.41-.9,.91-.9h0c3.6,.04,7.36,.06,10.99,.08,4.42,.03,9,.05,13.43,.11,.5,0,.91,.42,.9,.92,0,.5-.42,.9-.92,.9m-25.25-10.06c.03-.5,.45-.89,.95-.87,3.8,.16,7.62,.11,11.33,.05,4.26-.05,8.66-.12,12.99,.14,.51,.03,.89,.46,.86,.97-.02,.48-.42,.86-.91,.86h-.05c-4.27-.25-8.63-.19-12.86-.13-3.73,.05-7.58,.1-11.43-.06-.5-.02-.89-.44-.87-.95m25.29-7.78c-.52,0-1.04,0-1.56,0-2.92,0-5.85-.08-8.71-.15-4.59-.12-9.33-.25-14-.05-.5,.03-.93-.37-.96-.87-.02-.51,.38-.93,.88-.96,4.74-.2,9.51-.08,14.13,.05,3.34,.08,6.79,.18,10.2,.14h0c.5,0,.91,.4,.92,.9,0,.51-.4,.92-.91,.92m13.54,37.98v1.05c0,.42-.33,.76-.75,.76s-.77-.33-.77-.76v-1.08c-1.31-.14-2.52-.62-3.59-1.37-.3-.2-.47-.47-.47-.85,0-.54,.42-.96,.97-.96,.21,0,.42,.07,.57,.19,.82,.59,1.63,1,2.6,1.17v-3.45c-2.56-.67-3.75-1.63-3.75-3.6s1.49-3.17,3.68-3.35v-.38c0-.42,.35-.75,.77-.75s.75,.33,.75,.75v.39c1.04,.12,1.91,.45,2.72,.96,.27,.16,.52,.42,.52,.84,0,.55-.44,.97-.98,.97-.18,0-.35-.05-.53-.16-.62-.37-1.21-.62-1.81-.77v3.36c2.66,.67,3.8,1.73,3.8,3.6s-1.51,3.21-3.74,3.42m3-20.01c-.81,.04-1.66,.06-2.51,.06-1.16,0-2.3-.03-3.3-.1-.5-.03-.88-.47-.85-.97,.03-.5,.47-.88,.97-.85,1.67,.11,3.75,.12,5.6,.04,.51-.02,.92,.37,.95,.87,.02,.5-.37,.92-.87,.95m.03-8.92c-.67,0-1.32,.02-1.92,.02-1.5,0-2.81-.03-3.9-.06-.5-.02-.9-.44-.88-.94,.02-.49,.42-.88,.92-.88h.03c1.51,.05,3.45,.07,5.74,.04,.51,0,.92,.4,.92,.91,0,.5-.4,.91-.91,.91m.06-8.91h-.02c-1.84-.05-4.05-.05-5.84-.05-.51,0-.92-.41-.92-.91s.41-.92,.92-.92c1.79,0,4.01,0,5.88,.05,.51,0,.9,.42,.89,.93-.02,.49-.42,.89-.92,.89m.07-8.92h-.05c-1.73-.1-3.81-.12-5.86-.05-.5,.03-.92-.38-.94-.88-.02-.5,.38-.92,.88-.94,2.1-.07,4.24-.05,6.02,.05,.5,.03,.88,.46,.86,.96-.02,.49-.42,.87-.91,.87"/><path class="cls-3" d="M127.05,54.8c2.05-.07,4.13-.05,5.86,.04h.05c.48,0,.88-.37,.91-.86,.03-.5-.36-.93-.86-.96-1.78-.1-3.92-.11-6.02-.05-.5,.02-.9,.44-.88,.94,.02,.5,.44,.9,.94,.88"/><path class="cls-3" d="M92.01,54.53c3.45-.04,6.96,.05,10.36,.14,2.82,.07,5.71,.15,8.61,.15,1.75,0,3.5-.03,5.25-.1,.5-.02,.89-.45,.87-.95-.02-.5-.44-.89-.95-.87-4.58,.19-9.23,.07-13.74-.05-3.42-.09-6.95-.18-10.43-.14-.5,0-.91,.42-.9,.92,0,.5,.42,.92,.92,.9"/><path class="cls-3" d="M132.91,61.94c-1.86-.05-4.09-.05-5.88-.05-.5,0-.91,.41-.91,.91s.41,.91,.91,.91c1.79,0,4,0,5.84,.04h.02c.49,0,.9-.39,.91-.89,.01-.5-.39-.92-.89-.93"/><path class="cls-3" d="M116.24,61.81h-.01c-3.4,.04-6.86-.06-10.2-.14-4.62-.12-9.4-.25-14.13-.05-.5,.02-.89,.45-.87,.95,.02,.5,.45,.89,.95,.87,4.67-.2,9.42-.08,14.01,.04,2.85,.07,5.78,.15,8.7,.15,.52,0,1.04,0,1.56,0,.5,0,.91-.42,.9-.92,0-.5-.41-.9-.91-.9"/><path class="cls-3" d="M132.81,70.86c-2.3,.02-4.23,0-5.74-.04h-.03c-.49,0-.89,.39-.91,.88-.02,.5,.38,.93,.88,.94,1.09,.04,2.4,.05,3.9,.05,.61,0,1.25,0,1.92,0,.5,0,.91-.42,.9-.92,0-.5-.41-.9-.92-.9"/><path class="cls-3" d="M91.83,72.37c3.85,.16,7.7,.1,11.43,.05,4.22-.06,8.59-.12,12.85,.14h.06c.48,0,.88-.37,.91-.86,.03-.5-.35-.93-.86-.97-4.33-.25-8.73-.19-12.99-.14-3.71,.05-7.54,.1-11.33-.05-.5-.02-.93,.37-.95,.88-.02,.5,.37,.93,.87,.95"/><path class="cls-3" d="M132.71,79.79c-1.85,.08-3.94,.07-5.6-.04-.5-.03-.94,.35-.97,.85-.03,.5,.35,.94,.85,.97,1,.07,2.14,.1,3.3,.1,.85,0,1.7-.02,2.51-.06,.5-.02,.89-.45,.87-.95-.02-.5-.44-.89-.95-.87"/><path class="cls-3" d="M116.21,79.66c-4.43-.06-9-.08-13.43-.11-3.63-.02-7.39-.04-10.98-.08h0c-.5,0-.91,.4-.91,.9,0,.5,.4,.92,.9,.92,3.6,.04,7.36,.06,10.99,.08,4.42,.03,8.99,.05,13.42,.11h.01c.5,0,.91-.4,.91-.9,0-.5-.4-.92-.9-.92"/><path class="cls-3" d="M115.51,87.91l-23.77-.18c-.51,0-.92,.4-.92,.9,0,.5,.4,.92,.9,.92l23.77,.19h0c.5,0,.91-.4,.91-.91,0-.5-.4-.91-.9-.92"/><path class="cls-3" d="M129.72,94.59v-3.36c.6,.14,1.19,.4,1.81,.77,.18,.11,.35,.16,.52,.16,.54,0,.98-.42,.98-.96,0-.42-.25-.68-.52-.84-.81-.51-1.68-.84-2.72-.96v-.39c0-.42-.33-.75-.75-.75s-.77,.33-.77,.75v.38c-2.19,.17-3.68,1.47-3.68,3.35,0,1.97,1.19,2.94,3.75,3.6v3.45c-.97-.17-1.77-.58-2.6-1.17-.16-.12-.37-.19-.57-.19-.55,0-.97,.42-.97,.96,0,.38,.17,.65,.47,.85,1.07,.75,2.27,1.22,3.59,1.37v1.08c0,.43,.35,.76,.77,.76s.75-.33,.75-.76v-1.05c2.23-.21,3.74-1.49,3.74-3.42s-1.14-2.94-3.8-3.6m-1.38-.37c-1.35-.44-1.68-.9-1.68-1.63,0-.77,.56-1.37,1.68-1.47v3.1Zm1.38,5.62v-3.19c1.35,.42,1.73,.9,1.73,1.67,0,.84-.61,1.41-1.73,1.52"/><path class="cls-3" d="M83.73,117.44h57.87c.89,0,1.61-.72,1.61-1.61h-61.08c0,.89,.72,1.61,1.61,1.61"/><rect class="cls-5" x="87.53" y="84.75" width="50.59" height="24.23"/><path class="cls-5" d="M115.82,101.83h-47c-2.58,0-4.69-2.11-4.69-4.7v-23.53c0-2.58,2.11-4.7,4.69-4.7h47c2.58,0,4.7,2.11,4.7,4.7v23.53c0,2.58-2.11,4.7-4.7,4.7"/><path class="cls-3" d="M117.28,102.55h-49.93c-2.18,0-3.95-1.77-3.95-3.95v-26.46c0-2.18,1.77-3.95,3.95-3.95h49.93c2.18,0,3.95,1.77,3.95,3.95v26.46c0,2.18-1.77,3.95-3.95,3.95m-49.93-32.92c-1.38,0-2.51,1.13-2.51,2.51v26.46c0,1.38,1.13,2.51,2.51,2.51h49.93c1.39,0,2.51-1.13,2.51-2.51v-26.46c0-1.39-1.13-2.51-2.51-2.51h-49.93Z"/><path class="cls-3" d="M114.62,94.95h-7.32c-.42,0-.76-.34-.76-.76v-.4c0-.42,.34-.76,.76-.76h7.32c.42,0,.76,.34,.76,.76v.4c0,.42-.34,.76-.76,.76"/><path class="cls-3" d="M102.1,94.95h-7.32c-.42,0-.76-.34-.76-.76v-.4c0-.42,.34-.76,.76-.76h7.32c.42,0,.76,.34,.76,.76v.4c0,.42-.34,.76-.76,.76"/><path class="cls-3" d="M76.99,77.78h-7.32c-.42,0-.76-.34-.76-.76v-.4c0-.42,.34-.76,.76-.76h7.32c.42,0,.76,.34,.76,.76v.4c0,.42-.34,.76-.76,.76"/><path class="cls-3" d="M89.57,94.95h-7.32c-.42,0-.76-.34-.76-.76v-.4c0-.42,.34-.76,.76-.76h7.32c.42,0,.76,.34,.76,.76v.4c0,.42-.34,.76-.76,.76"/><path class="cls-3" d="M77.05,94.95h-7.32c-.42,0-.76-.34-.76-.76v-.4c0-.42,.34-.76,.76-.76h7.32c.42,0,.76,.34,.76,.76v.4c0,.42-.34,.76-.76,.76"/><path class="cls-3" d="M112.11,85h-6.44c-.94,0-1.71-.76-1.71-1.71v-2.48c0-.94,.76-1.71,1.71-1.71h6.44c.94,0,1.71,.76,1.71,1.71v2.48c0,.94-.76,1.71-1.71,1.71"/><path class="cls-4" d="M79.12,96.41c0,7.15-5.8,12.95-12.96,12.95s-12.95-5.8-12.95-12.95,5.8-12.95,12.95-12.95,12.96,5.8,12.96,12.95"/><polygon class="cls-5" points="72.89 93.39 71.01 91.58 64.65 98.23 61.24 94.96 59.44 96.85 64.74 101.9 72.89 93.39"/></g></g></g></g></svg>