<svg xmlns="http://www.w3.org/2000/svg" xmlns:xlink="http://www.w3.org/1999/xlink" width="1916.854" height="684.876" viewBox="0 0 1916.854 684.876">
  <defs>
    <clipPath id="clip-path">
      <rect id="Rectangle_6708" data-name="Rectangle 6708" width="1916.854" height="684.876" fill="#0064dd"/>
    </clipPath>
    <clipPath id="clip-path-2">
      <rect id="Rectangle_6692" data-name="Rectangle 6692" width="390.649" height="684.876" fill="rgba(0,0,0,0.09)"/>
    </clipPath>
    <clipPath id="clip-path-3">
      <rect id="Rectangle_6693" data-name="Rectangle 6693" width="678.525" height="637.159" fill="rgba(0,0,0,0.09)"/>
    </clipPath>
  </defs>
  <g id="Mask_Group_88" data-name="Mask Group 88" clip-path="url(#clip-path)">
    <g id="Group_29080" data-name="Group 29080" transform="translate(-609.495 -251.587)">
      <g id="Group_29077" data-name="Group 29077" transform="translate(687.077 0)" clip-path="url(#clip-path-2)">
        <path id="Path_46543" data-name="Path 46543" d="M51.841,0C255.652,0,391.29,149.841,391.29,350.812,391.29,543.971,254.942,686,66.043,686,44.029,686,20.594,684.58,0,683.159V3.416A388.548,388.548,0,0,1,51.841,0" transform="translate(0 0)" fill="rgba(0,0,0,0.09)"/>
      </g>
      <g id="Group_29079" data-name="Group 29079" transform="translate(637.159) rotate(90)">
        <g id="Group_29078" data-name="Group 29078" clip-path="url(#clip-path-3)">
          <path id="Path_46544" data-name="Path 46544" d="M679.638,318.1c0,194.469-147.021,320.105-340.822,320.105C145.685,638.205,0,513.237,0,320.1,0,125.636,147.021,0,340.822,0,533.954,0,679.638,124.968,679.638,318.1" transform="translate(0 0)" fill="rgba(0,0,0,0.09)"/>
        </g>
      </g>
    </g>
    <g id="Group_29084" data-name="Group 29084" transform="translate(-2296.725 -251.587)">
      <g id="Group_29081" data-name="Group 29081" transform="translate(687.077 0)" clip-path="url(#clip-path-2)">
        <path id="Path_46545" data-name="Path 46545" d="M51.841,0C255.652,0,391.29,149.841,391.29,350.812,391.29,543.971,254.942,686,66.043,686,44.029,686,20.594,684.58,0,683.159V3.416A388.548,388.548,0,0,1,51.841,0" transform="translate(0 0)" fill="rgba(0,0,0,0.09)"/>
      </g>
      <g id="Group_29083" data-name="Group 29083" transform="translate(637.159) rotate(90)">
        <g id="Group_29082" data-name="Group 29082" clip-path="url(#clip-path-3)">
          <path id="Path_46546" data-name="Path 46546" d="M679.638,318.1c0,194.469-147.021,320.105-340.822,320.105C145.685,638.205,0,513.237,0,320.1,0,125.636,147.021,0,340.822,0,533.954,0,679.638,124.968,679.638,318.1" transform="translate(0 0)" fill="rgba(0,0,0,0.09)"/>
        </g>
      </g>
    </g>
    <g id="Group_29088" data-name="Group 29088" transform="translate(1703.913 -251.587)">
      <g id="Group_29087" data-name="Group 29087" transform="translate(0 0)" clip-path="url(#clip-path-2)">
        <path id="Path_46547" data-name="Path 46547" d="M51.841,0C255.652,0,391.29,149.841,391.29,350.812,391.29,543.971,254.942,686,66.043,686,44.029,686,20.594,684.58,0,683.159V3.416A388.548,388.548,0,0,1,51.841,0" transform="translate(0 0)" fill="rgba(0,0,0,0.09)"/>
        <g id="Group_29086" data-name="Group 29086" transform="translate(-49.918) rotate(90)">
          <g id="Group_29085" data-name="Group 29085" clip-path="url(#clip-path-3)">
            <path id="Path_46548" data-name="Path 46548" d="M679.638,318.1c0,194.469-147.021,320.105-340.822,320.105C145.685,638.205,0,513.237,0,320.1,0,125.636,147.021,0,340.822,0,533.954,0,679.638,124.968,679.638,318.1" transform="translate(0 0)" fill="rgba(0,0,0,0.09)"/>
          </g>
        </g>
      </g>
    </g>
    <g id="Group_29092" data-name="Group 29092" transform="translate(3399.625 -251.587)">
      <g id="Group_29091" data-name="Group 29091" transform="translate(0 0)" clip-path="url(#clip-path-2)">
        <path id="Path_46549" data-name="Path 46549" d="M51.841,0C255.652,0,391.29,149.841,391.29,350.812,391.29,543.971,254.942,686,66.043,686,44.029,686,20.594,684.58,0,683.159V3.416A388.548,388.548,0,0,1,51.841,0" transform="translate(0 0)" fill="rgba(0,0,0,0.09)"/>
        <g id="Group_29090" data-name="Group 29090" transform="translate(-49.918) rotate(90)">
          <g id="Group_29089" data-name="Group 29089" clip-path="url(#clip-path-3)">
            <path id="Path_46550" data-name="Path 46550" d="M679.638,318.1c0,194.469-147.021,320.105-340.822,320.105C145.685,638.205,0,513.237,0,320.1,0,125.636,147.021,0,340.822,0,533.954,0,679.638,124.968,679.638,318.1" transform="translate(0 0)" fill="rgba(0,0,0,0.09)"/>
          </g>
        </g>
      </g>
    </g>
    <g id="Group_29096" data-name="Group 29096" transform="translate(221.142 448.264)">
      <g id="Group_29093" data-name="Group 29093" transform="translate(687.077 0)" clip-path="url(#clip-path-2)">
        <path id="Path_46551" data-name="Path 46551" d="M51.841,0C255.652,0,391.29,149.841,391.29,350.812,391.29,543.971,254.942,686,66.043,686,44.029,686,20.594,684.58,0,683.159V3.416A388.548,388.548,0,0,1,51.841,0" transform="translate(0 0)" fill="rgba(0,0,0,0.09)"/>
      </g>
      <g id="Group_29095" data-name="Group 29095" transform="translate(637.159 0) rotate(90)">
        <g id="Group_29094" data-name="Group 29094" clip-path="url(#clip-path-3)">
          <path id="Path_46552" data-name="Path 46552" d="M679.638,318.1c0,194.469-147.021,320.105-340.822,320.105C145.685,638.205,0,513.237,0,320.1,0,125.636,147.021,0,340.822,0,533.954,0,679.638,124.968,679.638,318.1" transform="translate(0 0)" fill="rgba(0,0,0,0.09)"/>
        </g>
      </g>
    </g>
    <g id="Group_29100" data-name="Group 29100" transform="translate(-1466.089 448.264)">
      <g id="Group_29097" data-name="Group 29097" transform="translate(687.077 0)" clip-path="url(#clip-path-2)">
        <path id="Path_46553" data-name="Path 46553" d="M51.841,0C255.652,0,391.29,149.841,391.29,350.812,391.29,543.971,254.942,686,66.043,686,44.029,686,20.594,684.58,0,683.159V3.416A388.548,388.548,0,0,1,51.841,0" transform="translate(0 0)" fill="rgba(0,0,0,0.09)"/>
      </g>
      <g id="Group_29099" data-name="Group 29099" transform="translate(637.159 0) rotate(90)">
        <g id="Group_29098" data-name="Group 29098" clip-path="url(#clip-path-3)">
          <path id="Path_46554" data-name="Path 46554" d="M679.638,318.1c0,194.469-147.021,320.105-340.822,320.105C145.685,638.205,0,513.237,0,320.1,0,125.636,147.021,0,340.822,0,533.954,0,679.638,124.968,679.638,318.1" transform="translate(0 0)" fill="rgba(0,0,0,0.09)"/>
        </g>
      </g>
    </g>
    <g id="Group_29104" data-name="Group 29104" transform="translate(1916.854 448.264)">
      <g id="Group_29101" data-name="Group 29101" transform="translate(687.077 0)" clip-path="url(#clip-path-2)">
        <path id="Path_46555" data-name="Path 46555" d="M51.841,0C255.652,0,391.29,149.841,391.29,350.812,391.29,543.971,254.942,686,66.043,686,44.029,686,20.594,684.58,0,683.159V3.416A388.548,388.548,0,0,1,51.841,0" transform="translate(0 0)" fill="rgba(0,0,0,0.09)"/>
      </g>
      <g id="Group_29103" data-name="Group 29103" transform="translate(637.159 0) rotate(90)">
        <g id="Group_29102" data-name="Group 29102" clip-path="url(#clip-path-3)">
          <path id="Path_46556" data-name="Path 46556" d="M679.638,318.1c0,194.469-147.021,320.105-340.822,320.105C145.685,638.205,0,513.237,0,320.1,0,125.636,147.021,0,340.822,0,533.954,0,679.638,124.968,679.638,318.1" transform="translate(0 0)" fill="rgba(0,0,0,0.09)"/>
        </g>
      </g>
    </g>
    <g id="Group_29106" data-name="Group 29106" transform="translate(1653.995 -251.587) rotate(90)">
      <g id="Group_29105" data-name="Group 29105" clip-path="url(#clip-path-3)">
        <path id="Path_46557" data-name="Path 46557" d="M679.638,318.1c0,194.469-147.021,320.105-340.822,320.105C145.685,638.205,0,513.237,0,320.1,0,125.636,147.021,0,340.822,0,533.954,0,679.638,124.968,679.638,318.1" transform="translate(0 0)" fill="rgba(0,0,0,0.09)"/>
      </g>
    </g>
    <g id="Group_29108" data-name="Group 29108" transform="translate(3349.707 -251.587) rotate(90)">
      <g id="Group_29107" data-name="Group 29107" clip-path="url(#clip-path-3)">
        <path id="Path_46558" data-name="Path 46558" d="M679.638,318.1c0,194.469-147.021,320.105-340.822,320.105C145.685,638.205,0,513.237,0,320.1,0,125.636,147.021,0,340.822,0,533.954,0,679.638,124.968,679.638,318.1" transform="translate(0 0)" fill="rgba(0,0,0,0.09)"/>
      </g>
    </g>
  </g>
</svg>